<svg width="1170" height="182" viewBox="0 0 1170 182" fill="none" xmlns="http://www.w3.org/2000/svg">
<path d="M414.31 33H409.019V11.6777H398.771V33H393.498V7.40625H414.31V33ZM418.906 23.3145C418.906 21.4277 419.269 19.7461 419.996 18.2695C420.722 16.793 421.765 15.6504 423.125 14.8418C424.496 14.0332 426.084 13.6289 427.888 13.6289C430.455 13.6289 432.546 14.4141 434.164 15.9844C435.793 17.5547 436.701 19.6875 436.888 22.3828L436.923 23.6836C436.923 26.6016 436.109 28.9453 434.48 30.7148C432.851 32.4727 430.666 33.3516 427.923 33.3516C425.181 33.3516 422.99 32.4727 421.349 30.7148C419.72 28.957 418.906 26.5664 418.906 23.543V23.3145ZM423.986 23.6836C423.986 25.4883 424.326 26.8711 425.005 27.832C425.685 28.7812 426.658 29.2559 427.923 29.2559C429.154 29.2559 430.115 28.7871 430.806 27.8496C431.498 26.9004 431.843 25.3887 431.843 23.3145C431.843 21.5449 431.498 20.1738 430.806 19.2012C430.115 18.2285 429.142 17.7422 427.888 17.7422C426.646 17.7422 425.685 18.2285 425.005 19.2012C424.326 20.1621 423.986 21.6562 423.986 23.6836ZM449.042 29.2559C449.98 29.2559 450.742 28.998 451.328 28.4824C451.914 27.9668 452.218 27.2812 452.242 26.4258H457.005C456.994 27.7148 456.642 28.8984 455.951 29.9766C455.259 31.043 454.31 31.875 453.103 32.4727C451.908 33.0586 450.584 33.3516 449.13 33.3516C446.412 33.3516 444.267 32.4902 442.697 30.7676C441.126 29.0332 440.341 26.6426 440.341 23.5957V23.2617C440.341 20.332 441.121 17.9941 442.679 16.248C444.238 14.502 446.376 13.6289 449.095 13.6289C451.474 13.6289 453.378 14.3086 454.808 15.668C456.25 17.0156 456.982 18.8145 457.005 21.0645H452.242C452.218 20.0801 451.914 19.2832 451.328 18.6738C450.742 18.0527 449.968 17.7422 449.007 17.7422C447.824 17.7422 446.927 18.1758 446.318 19.043C445.72 19.8984 445.421 21.293 445.421 23.2266V23.7539C445.421 25.7109 445.72 27.1172 446.318 27.9727C446.916 28.8281 447.824 29.2559 449.042 29.2559ZM476.771 18.0586H470.671V33H465.574V18.0586H459.58V13.9805H476.771V18.0586ZM479.099 23.3145C479.099 21.4277 479.462 19.7461 480.189 18.2695C480.915 16.793 481.958 15.6504 483.318 14.8418C484.689 14.0332 486.277 13.6289 488.081 13.6289C490.648 13.6289 492.74 14.4141 494.357 15.9844C495.986 17.5547 496.894 19.6875 497.081 22.3828L497.117 23.6836C497.117 26.6016 496.302 28.9453 494.673 30.7148C493.044 32.4727 490.859 33.3516 488.117 33.3516C485.374 33.3516 483.183 32.4727 481.542 30.7148C479.913 28.957 479.099 26.5664 479.099 23.543V23.3145ZM484.179 23.6836C484.179 25.4883 484.519 26.8711 485.199 27.832C485.878 28.7812 486.851 29.2559 488.117 29.2559C489.347 29.2559 490.308 28.7871 490.999 27.8496C491.691 26.9004 492.036 25.3887 492.036 23.3145C492.036 21.5449 491.691 20.1738 490.999 19.2012C490.308 18.2285 489.335 17.7422 488.081 17.7422C486.839 17.7422 485.878 18.2285 485.199 19.2012C484.519 20.1621 484.179 21.6562 484.179 23.6836ZM517.181 13.9805V33H512.118V26.4258H508.902L505.245 33H500.095L504.243 25.5645C503.107 25.0371 502.228 24.3223 501.607 23.4199C500.997 22.5176 500.693 21.4922 500.693 20.3438C500.693 18.5039 501.402 16.998 502.82 15.8262C504.249 14.6426 506.159 14.0273 508.55 13.9805H517.181ZM508.638 22.875H512.118V18.0586H508.814C507.911 18.0586 507.179 18.2988 506.616 18.7793C506.054 19.248 505.773 19.8223 505.773 20.502C505.773 21.1816 506.042 21.7441 506.581 22.1895C507.12 22.6348 507.806 22.8633 508.638 22.875ZM539.038 33H533.941V25.6875H527.63V33H522.55V13.9805H527.63V21.6094H533.941V13.9805H539.038V33ZM560.544 33H555.446V25.6875H549.136V33H544.056V13.9805H549.136V21.6094H555.446V13.9805H560.544V33ZM570.993 19.5527H574.632C576.272 19.5527 577.714 19.8281 578.956 20.3789C580.198 20.9297 581.147 21.7207 581.804 22.752C582.472 23.7715 582.806 24.9609 582.806 26.3203C582.806 28.3242 582.062 29.9414 580.573 31.1719C579.097 32.3906 577.081 33 574.526 33H565.896V13.9805H570.993V19.5527ZM590.892 33H585.812V13.9805H590.892V33ZM570.993 23.6309V28.9395H574.597C575.605 28.9395 576.378 28.7051 576.917 28.2363C577.456 27.7676 577.726 27.1289 577.726 26.3203C577.726 25.5 577.462 24.8496 576.935 24.3691C576.407 23.877 575.628 23.6309 574.597 23.6309H570.993ZM605.208 33.3516C602.419 33.3516 600.145 32.4961 598.388 30.7852C596.642 29.0742 595.769 26.7949 595.769 23.9473V23.4551C595.769 21.5449 596.138 19.8398 596.876 18.3398C597.614 16.8281 598.657 15.668 600.005 14.8594C601.364 14.0391 602.911 13.6289 604.645 13.6289C607.247 13.6289 609.292 14.4492 610.78 16.0898C612.28 17.7305 613.03 20.0566 613.03 23.0684V25.1426H600.919C601.083 26.3848 601.575 27.3809 602.395 28.1309C603.227 28.8809 604.276 29.2559 605.542 29.2559C607.499 29.2559 609.028 28.5469 610.13 27.1289L612.626 29.9238C611.864 31.002 610.833 31.8457 609.532 32.4551C608.231 33.0527 606.79 33.3516 605.208 33.3516ZM604.628 17.7422C603.62 17.7422 602.8 18.082 602.167 18.7617C601.546 19.4414 601.147 20.4141 600.972 21.6797H608.038V21.2754C608.015 20.1504 607.71 19.2832 607.124 18.6738C606.538 18.0527 605.706 17.7422 604.628 17.7422ZM634.509 25.9863H632.47V33H627.389V13.9805H632.47V21.1348H634.28L638.429 13.9805H644.845L638.622 23.0332L645.425 33H638.657L634.509 25.9863ZM664.962 13.9805V33H659.882V18.0938H655.399L655.083 23.9648C654.884 27.0938 654.268 29.373 653.237 30.8027C652.206 32.2324 650.671 32.9648 648.632 33H646.909L646.856 28.8691L647.489 28.8164C648.403 28.7461 649.071 28.207 649.493 27.1992C649.915 26.1914 650.178 24.4746 650.284 22.0488L650.635 13.9805H664.962ZM681.422 13.9805H686.503V33H681.422V21.2578L675.059 33H669.962V13.9805H675.059V25.7051L681.422 13.9805ZM700.221 33.3516C697.432 33.3516 695.159 32.4961 693.401 30.7852C691.655 29.0742 690.782 26.7949 690.782 23.9473V23.4551C690.782 21.5449 691.151 19.8398 691.889 18.3398C692.628 16.8281 693.67 15.668 695.018 14.8594C696.378 14.0391 697.924 13.6289 699.659 13.6289C702.26 13.6289 704.305 14.4492 705.794 16.0898C707.294 17.7305 708.044 20.0566 708.044 23.0684V25.1426H695.932C696.096 26.3848 696.588 27.3809 697.409 28.1309C698.241 28.8809 699.29 29.2559 700.555 29.2559C702.512 29.2559 704.042 28.5469 705.143 27.1289L707.639 29.9238C706.878 31.002 705.846 31.8457 704.545 32.4551C703.245 33.0527 701.803 33.3516 700.221 33.3516ZM699.641 17.7422C698.633 17.7422 697.813 18.082 697.18 18.7617C696.559 19.4414 696.161 20.4141 695.985 21.6797H703.051V21.2754C703.028 20.1504 702.723 19.2832 702.137 18.6738C701.551 18.0527 700.719 17.7422 699.641 17.7422ZM728.512 33H723.415V25.6875H717.104V33H712.024V13.9805H717.104V21.6094H723.415V13.9805H728.512V33ZM749.315 18.0586H743.215V33H738.118V18.0586H732.123V13.9805H749.315V18.0586ZM758.393 19.5527H762.032C763.672 19.5527 765.114 19.8281 766.356 20.3789C767.598 20.9297 768.547 21.7207 769.203 22.752C769.871 23.7715 770.205 24.9609 770.205 26.3203C770.205 28.3242 769.461 29.9414 767.973 31.1719C766.496 32.3906 764.481 33 761.926 33H753.295V13.9805H758.393V19.5527ZM778.291 33H773.211V13.9805H778.291V33ZM758.393 23.6309V28.9395H761.996C763.004 28.9395 763.778 28.7051 764.317 28.2363C764.856 27.7676 765.125 27.1289 765.125 26.3203C765.125 25.5 764.862 24.8496 764.334 24.3691C763.807 23.877 763.028 23.6309 761.996 23.6309H758.393Z" fill="#212121"/>
<rect x="0.5" y="92.5" width="169" height="89" rx="3.5" stroke="#AFB1B8"/>
<path d="M69 112L76.3076 118.918H96.6924V138.216L104 145.134V112H69Z" fill="#AFB1B8"/>
<path d="M63 118.626V150.814H97V138.02L76.5231 118.634L63 118.626ZM90.5231 146.106H68.3801V124.458H69.9453V144.64H90.5231V146.106Z" fill="#AFB1B8"/>
<path d="M72.791 156.784L73.6089 155.099H74.2925L73.1011 157.345V158.654H72.481V157.345L71.2871 155.099H71.9731L72.791 156.784ZM76.3018 157.826H74.9248L74.6367 158.654H73.9946L75.3374 155.099H75.8916L77.2368 158.654H76.5923L76.3018 157.826ZM75.0981 157.328H76.1284L75.6133 155.854L75.0981 157.328ZM78.7358 157.694C78.7358 157.53 78.7806 157.379 78.8701 157.243C78.9596 157.104 79.1362 156.941 79.3999 156.752C79.2616 156.578 79.1647 156.43 79.1094 156.308C79.0557 156.186 79.0288 156.068 79.0288 155.954C79.0288 155.675 79.1134 155.456 79.2827 155.294C79.452 155.132 79.6799 155.05 79.9663 155.05C80.2251 155.05 80.4367 155.127 80.6011 155.28C80.7671 155.431 80.8501 155.619 80.8501 155.844C80.8501 155.992 80.8127 156.129 80.7378 156.254C80.6629 156.378 80.54 156.501 80.3691 156.625L80.1274 156.801L80.8135 157.611C80.9128 157.416 80.9624 157.199 80.9624 156.959H81.4775C81.4775 157.397 81.375 157.756 81.1699 158.036L81.6924 158.654H81.0039L80.8037 158.417C80.5498 158.607 80.2471 158.703 79.8955 158.703C79.5439 158.703 79.2624 158.61 79.0508 158.424C78.8408 158.237 78.7358 157.994 78.7358 157.694ZM79.9126 158.229C80.1128 158.229 80.3 158.162 80.4741 158.029L79.6978 157.113L79.6221 157.167C79.4268 157.315 79.3291 157.484 79.3291 157.675C79.3291 157.839 79.382 157.973 79.4878 158.075C79.5936 158.178 79.7352 158.229 79.9126 158.229ZM79.5854 155.939C79.5854 156.076 79.6693 156.247 79.8369 156.454L80.1079 156.269L80.1836 156.208C80.2845 156.118 80.335 156.003 80.335 155.863C80.335 155.771 80.3 155.692 80.23 155.626C80.16 155.56 80.0713 155.526 79.9639 155.526C79.8483 155.526 79.7563 155.565 79.688 155.644C79.6196 155.722 79.5854 155.82 79.5854 155.939ZM86.043 157.497C86.0072 157.876 85.8672 158.172 85.623 158.385C85.3789 158.597 85.0542 158.703 84.6489 158.703C84.3657 158.703 84.1159 158.636 83.8994 158.502C83.6846 158.367 83.5186 158.176 83.4014 157.929C83.2842 157.681 83.2231 157.394 83.2183 157.067V156.735C83.2183 156.4 83.2777 156.104 83.3965 155.849C83.5153 155.593 83.6854 155.396 83.9067 155.258C84.1297 155.119 84.3869 155.05 84.6782 155.05C85.0705 155.05 85.3862 155.157 85.6255 155.37C85.8647 155.583 86.0039 155.884 86.043 156.273H85.4277C85.3984 156.018 85.3236 155.834 85.2031 155.722C85.0843 155.608 84.9093 155.551 84.6782 155.551C84.4097 155.551 84.203 155.649 84.0581 155.846C83.9149 156.042 83.8416 156.329 83.8384 156.708V157.023C83.8384 157.407 83.9067 157.7 84.0435 157.902C84.1818 158.104 84.3836 158.205 84.6489 158.205C84.8914 158.205 85.0737 158.15 85.1958 158.041C85.3179 157.932 85.3952 157.75 85.4277 157.497H86.043ZM89.4341 156.969C89.4341 157.318 89.3739 157.624 89.2534 157.887C89.133 158.149 88.9604 158.351 88.7358 158.493C88.5129 158.633 88.2557 158.703 87.9644 158.703C87.6763 158.703 87.4191 158.633 87.1929 158.493C86.9683 158.351 86.7941 158.15 86.6704 157.89C86.5483 157.629 86.4865 157.329 86.4849 156.989V156.789C86.4849 156.442 86.5459 156.136 86.668 155.871C86.7917 155.605 86.965 155.403 87.188 155.263C87.4126 155.121 87.6698 155.05 87.9595 155.05C88.2492 155.05 88.5055 155.12 88.7285 155.26C88.9531 155.399 89.1265 155.599 89.2485 155.861C89.3706 156.121 89.4325 156.425 89.4341 156.771V156.969ZM88.8164 156.784C88.8164 156.39 88.7415 156.088 88.5918 155.878C88.4437 155.668 88.2329 155.563 87.9595 155.563C87.6925 155.563 87.4834 155.668 87.332 155.878C87.1823 156.086 87.1058 156.382 87.1025 156.764V156.969C87.1025 157.36 87.1782 157.662 87.3296 157.875C87.4826 158.088 87.6942 158.195 87.9644 158.195C88.2378 158.195 88.4478 158.091 88.5942 157.882C88.7424 157.674 88.8164 157.37 88.8164 156.969V156.784Z" fill="#AFB1B8"/>
<rect x="200.5" y="92.5" width="169" height="89" rx="3.5" stroke="#AFB1B8"/>
<path d="M281.977 113.935H282.114C282.366 113.935 282.64 113.96 282.91 113.983C284.103 114.067 285.287 114.246 286.452 114.517V111.654C285.253 111.353 284.03 111.158 282.797 111.071C282.329 111.036 281.83 111.013 281.319 111H280.892C278.417 111.009 275.953 111.327 273.555 111.946C270.825 112.627 268.205 113.693 265.771 115.112V143.509C268.114 142.236 270.607 141.264 273.191 140.617C275.232 140.097 277.317 139.776 279.419 139.661H279.503C279.854 139.643 280.206 139.633 280.568 139.631V136.722C277.837 136.757 275.119 137.118 272.473 137.797C271.494 138.051 270.548 138.326 269.66 138.631L268.648 138.975V116.833L269.08 116.625C272.382 115.06 275.952 114.149 279.596 113.942C279.627 113.94 279.657 113.94 279.688 113.942C280.09 113.922 280.494 113.912 280.892 113.912H281.327H281.347C281.557 113.917 281.767 113.922 281.977 113.935Z" fill="#AFB1B8"/>
<path d="M289.111 116.933C288.445 116.933 287.788 116.91 287.153 116.861C286.394 116.805 285.615 116.714 284.876 116.589C284.426 116.513 283.983 116.421 283.553 116.322V144.393C285.374 144.844 287.243 145.065 289.118 145.05C291.593 145.04 294.057 144.723 296.455 144.106C299.185 143.424 301.807 142.358 304.241 140.94V113.05C301.899 114.322 299.407 115.294 296.824 115.943C294.303 116.591 291.713 116.923 289.111 116.933ZM300.335 117.418L301.347 117.078V139.226L300.914 139.435C299.255 140.224 297.522 140.847 295.741 141.294C293.578 141.853 291.354 142.141 289.121 142.151C288.453 142.151 287.79 142.123 287.148 142.067L286.455 142.006V139.318V119.229L287.262 119.282C287.848 119.32 288.456 119.338 289.116 119.338C291.951 119.328 294.775 118.966 297.522 118.26C298.466 118.011 299.404 117.731 300.335 117.418Z" fill="#AFB1B8"/>
<path d="M267.737 153.212C267.592 153.062 267.416 152.943 267.222 152.865C267.029 152.786 266.82 152.75 266.612 152.757C266.389 152.754 266.168 152.796 265.961 152.879C265.772 152.955 265.6 153.068 265.455 153.212C265.313 153.357 265.201 153.53 265.129 153.721C265.05 153.921 265.01 154.134 265.013 154.349V158.143C265.004 158.41 265.055 158.676 265.162 158.921C265.252 159.116 265.381 159.289 265.541 159.43C265.693 159.557 265.871 159.65 266.063 159.699C266.247 159.751 266.438 159.778 266.629 159.778C266.841 159.78 267.05 159.735 267.241 159.646C267.431 159.563 267.603 159.444 267.747 159.295C267.888 159.148 268.001 158.975 268.079 158.786C268.16 158.595 268.201 158.389 268.2 158.181V157.757H267.209V158.095C267.211 158.21 267.192 158.325 267.15 158.433C267.118 158.514 267.069 158.587 267.006 158.647C266.945 158.696 266.874 158.733 266.799 158.756C266.732 158.778 266.662 158.79 266.591 158.792C266.503 158.802 266.413 158.788 266.331 158.753C266.25 158.717 266.179 158.66 266.126 158.588C266.032 158.436 265.987 158.258 265.994 158.08V154.542C265.988 154.346 266.03 154.151 266.116 153.975C266.167 153.895 266.24 153.831 266.326 153.791C266.412 153.75 266.507 153.735 266.601 153.746C266.687 153.743 266.772 153.761 266.849 153.798C266.926 153.836 266.993 153.891 267.044 153.96C267.155 154.106 267.213 154.285 267.209 154.469V154.797H268.19V154.41C268.192 154.183 268.151 153.958 268.069 153.746C267.995 153.548 267.883 153.366 267.737 153.212Z" fill="#AFB1B8"/>
<path d="M273.629 153.169C273.313 152.902 272.914 152.755 272.501 152.752C272.299 152.753 272.098 152.789 271.909 152.859C271.716 152.928 271.538 153.033 271.385 153.169C271.221 153.317 271.09 153.498 271.001 153.701C270.901 153.932 270.851 154.183 270.856 154.435V158.074C270.85 158.33 270.899 158.585 271.001 158.819C271.09 159.015 271.222 159.189 271.385 159.328C271.537 159.469 271.715 159.578 271.909 159.648C272.098 159.718 272.299 159.754 272.501 159.755C272.703 159.755 272.903 159.719 273.093 159.648C273.29 159.577 273.472 159.468 273.629 159.328C273.787 159.186 273.915 159.013 274.003 158.819C274.105 158.585 274.154 158.33 274.148 158.074V154.435C274.152 154.183 274.103 153.932 274.003 153.701C273.915 153.5 273.788 153.319 273.629 153.169ZM273.166 158.074C273.174 158.171 273.161 158.269 273.127 158.36C273.093 158.451 273.039 158.533 272.969 158.601C272.838 158.711 272.673 158.771 272.502 158.771C272.331 158.771 272.166 158.711 272.035 158.601C271.965 158.533 271.911 158.451 271.877 158.36C271.843 158.269 271.83 158.171 271.838 158.074V154.435C271.83 154.338 271.843 154.241 271.877 154.15C271.911 154.059 271.965 153.976 272.035 153.909C272.166 153.799 272.331 153.739 272.502 153.739C272.673 153.739 272.838 153.799 272.969 153.909C273.039 153.976 273.093 154.059 273.127 154.15C273.161 154.241 273.174 154.338 273.166 154.435V158.074Z" fill="#AFB1B8"/>
<path d="M281.367 159.699V152.811H280.414L279.161 156.457H279.144L277.881 152.811H276.938V159.699H277.922V155.509H277.94L278.903 158.471H279.394L280.366 155.509H280.383V159.699H281.367Z" fill="#AFB1B8"/>
<path d="M286.958 153.294C286.806 153.124 286.615 152.994 286.401 152.917C286.171 152.842 285.93 152.806 285.688 152.811H284.226V159.699H285.207V157.009H285.713C286.02 157.023 286.324 156.958 286.599 156.821C286.822 156.697 287.008 156.515 287.138 156.294C287.251 156.111 287.328 155.907 287.363 155.694C287.401 155.435 287.419 155.173 287.416 154.911C287.425 154.58 287.393 154.249 287.32 153.927C287.254 153.688 287.13 153.471 286.958 153.294ZM286.452 155.394C286.448 155.519 286.417 155.641 286.361 155.753C286.305 155.859 286.216 155.943 286.108 155.994C285.963 156.059 285.804 156.089 285.645 156.081H285.197V153.739H285.703C285.856 153.731 286.007 153.761 286.146 153.825C286.247 153.883 286.328 153.972 286.376 154.079C286.43 154.2 286.459 154.331 286.462 154.463C286.462 154.608 286.462 154.761 286.462 154.921C286.462 155.081 286.472 155.247 286.462 155.394H286.452Z" fill="#AFB1B8"/>
<path d="M291.608 152.811H290.803L289.285 159.699H290.267L290.555 158.219H291.894L292.182 159.699H293.163L291.608 152.811ZM290.702 157.281L291.185 154.784H291.203L291.684 157.281H290.702Z" fill="#AFB1B8"/>
<path d="M297.95 156.961H297.932L296.449 152.811H295.506V159.699H296.487V155.557H296.508L298.008 159.699H298.931V152.811H297.95V156.961Z" fill="#AFB1B8"/>
<path d="M303.948 152.811L303.158 155.549H303.138L302.349 152.811H301.309L302.657 156.788V159.699H303.639V156.788L304.987 152.811H303.948Z" fill="#AFB1B8"/>
<path d="M265 161.645H265.473V162.972H265.794V161.645H266.265V161.372H265V161.645Z" fill="#AFB1B8"/>
<path d="M268.977 161.372L268.357 162.972H268.698L268.83 162.608H269.467L269.604 162.972H269.953L269.318 161.372H268.977ZM268.926 162.339L269.144 161.746L269.361 162.339H268.926Z" fill="#AFB1B8"/>
<path d="M272.908 162.382H273.277V162.588C273.169 162.675 273.036 162.722 272.898 162.723C272.833 162.726 272.769 162.715 272.71 162.688C272.651 162.661 272.599 162.621 272.559 162.57C272.474 162.449 272.432 162.302 272.44 162.153C272.44 161.797 272.594 161.619 272.9 161.619C272.981 161.611 273.062 161.632 273.128 161.679C273.194 161.726 273.242 161.795 273.262 161.874L273.578 161.813C273.51 161.5 273.285 161.342 272.9 161.342C272.695 161.337 272.495 161.41 272.341 161.548C272.261 161.628 272.198 161.724 272.159 161.83C272.119 161.936 272.103 162.05 272.111 162.163C272.102 162.382 272.175 162.597 272.316 162.764C272.394 162.844 272.489 162.907 272.594 162.947C272.699 162.988 272.811 163.005 272.923 162.998C273.173 163.004 273.417 162.913 273.601 162.743V162.113H272.908V162.382Z" fill="#AFB1B8"/>
<path d="M276.923 161.372H276.599V162.972H277.72V162.7H276.923V161.372Z" fill="#AFB1B8"/>
<path d="M280.317 161.372H279.994V162.972H280.317V161.372Z" fill="#AFB1B8"/>
<path d="M283.636 162.44L282.981 161.372H282.667V162.972H282.969V161.927L283.611 162.972H283.932V161.372H283.636V162.44Z" fill="#AFB1B8"/>
<path d="M286.637 162.268H287.434V161.995H286.637V161.645H287.494V161.372H286.313V162.972H287.527V162.7H286.637V162.268Z" fill="#AFB1B8"/>
<path d="M293.912 162.003H293.282V161.372H292.961V162.972H293.282V162.273H293.912V162.972H294.233V161.372H293.912V162.003Z" fill="#AFB1B8"/>
<path d="M296.93 162.268H297.73V161.995H296.93V161.645H297.79V161.372H296.609V162.972H297.821V162.7H296.93V162.268Z" fill="#AFB1B8"/>
<path d="M301.023 162.268C301.302 162.224 301.443 162.077 301.443 161.823C301.451 161.755 301.441 161.686 301.413 161.623C301.386 161.56 301.342 161.506 301.286 161.467C301.141 161.394 300.98 161.361 300.818 161.373H300.14V162.972H300.462V162.303H300.525C300.593 162.299 300.662 162.311 300.725 162.339C300.772 162.368 300.811 162.408 300.839 162.456L301.188 162.964H301.572L301.377 162.652C301.291 162.497 301.17 162.366 301.023 162.268ZM300.699 162.046H300.462V161.645H300.715C300.825 161.636 300.936 161.649 301.041 161.683C301.064 161.703 301.083 161.729 301.095 161.758C301.107 161.787 301.113 161.818 301.111 161.849C301.11 161.88 301.101 161.911 301.087 161.938C301.072 161.966 301.051 161.99 301.026 162.008C300.92 162.041 300.81 162.054 300.699 162.046Z" fill="#AFB1B8"/>
<path d="M304.109 162.268H304.906V161.995H304.109V161.645H304.97V161.372H303.786V162.972H305V162.7H304.109V162.268Z" fill="#AFB1B8"/>
<rect x="400.5" y="92.5" width="169" height="89" rx="3.5" stroke="#AFB1B8"/>
<path d="M471.345 157.795C471.36 157.795 471.375 157.798 471.389 157.804C471.403 157.81 471.415 157.818 471.425 157.829L471.631 158.045C471.471 158.219 471.274 158.359 471.052 158.454C470.793 158.558 470.513 158.608 470.232 158.601C469.967 158.606 469.705 158.559 469.46 158.464C469.239 158.376 469.041 158.244 468.879 158.076C468.713 157.903 468.585 157.7 468.503 157.478C468.413 157.232 468.369 156.972 468.372 156.711C468.368 156.449 468.416 156.188 468.513 155.942C468.603 155.719 468.739 155.516 468.912 155.344C469.088 155.175 469.298 155.042 469.529 154.954C469.783 154.86 470.053 154.814 470.324 154.817C470.577 154.811 470.828 154.853 471.062 154.942C471.266 155.026 471.453 155.143 471.615 155.287L471.443 155.518C471.431 155.534 471.416 155.548 471.399 155.559C471.379 155.573 471.355 155.579 471.33 155.576C471.303 155.575 471.278 155.566 471.255 155.552L471.163 155.491L471.034 155.412C470.979 155.383 470.921 155.358 470.862 155.336C470.786 155.31 470.707 155.29 470.628 155.275C470.527 155.257 470.424 155.249 470.322 155.251C470.126 155.248 469.932 155.283 469.751 155.353C469.582 155.419 469.429 155.517 469.303 155.643C469.175 155.776 469.076 155.933 469.012 156.103C468.94 156.299 468.904 156.504 468.907 156.711C468.904 156.921 468.94 157.131 469.012 157.329C469.075 157.498 469.172 157.654 469.298 157.787C469.416 157.912 469.562 158.009 469.725 158.072C469.893 158.138 470.073 158.171 470.255 158.17C470.36 158.171 470.465 158.165 470.569 158.15C470.738 158.13 470.901 158.074 471.044 157.986C471.116 157.941 471.184 157.89 471.248 157.834C471.274 157.81 471.309 157.796 471.345 157.795Z" fill="#AFB1B8"/>
<path d="M477.287 156.711C477.29 156.971 477.243 157.229 477.148 157.473C477.064 157.694 476.932 157.896 476.761 158.065C476.589 158.234 476.382 158.366 476.153 158.453C475.649 158.636 475.093 158.636 474.589 158.453C474.361 158.365 474.155 158.232 473.985 158.064C473.813 157.892 473.68 157.688 473.594 157.466C473.408 156.972 473.408 156.432 473.594 155.939C473.681 155.716 473.814 155.512 473.985 155.338C474.157 155.175 474.363 155.048 474.589 154.963C475.092 154.777 475.65 154.777 476.153 154.963C476.381 155.052 476.588 155.185 476.76 155.353C476.929 155.523 477.061 155.724 477.148 155.944C477.244 156.189 477.291 156.449 477.287 156.711ZM476.747 156.711C476.751 156.503 476.718 156.296 476.649 156.098C476.592 155.929 476.498 155.773 476.374 155.64C476.253 155.514 476.105 155.415 475.939 155.351C475.573 155.217 475.168 155.217 474.802 155.351C474.637 155.415 474.488 155.514 474.368 155.64C474.242 155.772 474.147 155.928 474.09 156.098C473.959 156.497 473.959 156.925 474.09 157.324C474.148 157.493 474.243 157.649 474.368 157.782C474.489 157.907 474.637 158.005 474.802 158.069C475.169 158.199 475.573 158.199 475.939 158.069C476.105 158.005 476.253 157.907 476.374 157.782C476.497 157.648 476.591 157.492 476.649 157.324C476.718 157.126 476.751 156.919 476.747 156.711Z" fill="#AFB1B8"/>
<path d="M481.341 157.353L481.395 157.49C481.415 157.441 481.433 157.397 481.454 157.353C481.474 157.307 481.496 157.262 481.521 157.218L482.835 154.942C482.861 154.903 482.884 154.878 482.91 154.871C482.945 154.861 482.981 154.857 483.018 154.859H483.406V158.561H482.946V155.839C482.946 155.805 482.946 155.765 482.946 155.724C482.943 155.681 482.943 155.639 482.946 155.596L481.624 157.905C481.607 157.939 481.58 157.968 481.546 157.989C481.513 158.009 481.473 158.02 481.433 158.02H481.359C481.319 158.02 481.279 158.01 481.246 157.989C481.212 157.969 481.185 157.939 481.168 157.905L479.808 155.582C479.808 155.626 479.808 155.67 479.808 155.714C479.808 155.758 479.808 155.797 479.808 155.831V158.554H479.363V154.859H479.751C479.788 154.857 479.824 154.861 479.859 154.871C479.891 154.886 479.917 154.911 479.931 154.942L481.274 157.221C481.3 157.263 481.323 157.307 481.341 157.353Z" fill="#AFB1B8"/>
<path d="M486.287 157.169V158.556H485.773V154.859H486.92C487.136 154.855 487.352 154.882 487.56 154.939C487.727 154.984 487.881 155.063 488.013 155.17C488.127 155.27 488.215 155.394 488.27 155.532C488.331 155.683 488.361 155.844 488.358 156.005C488.36 156.167 488.328 156.328 488.263 156.478C488.201 156.62 488.106 156.747 487.985 156.848C487.853 156.96 487.698 157.043 487.529 157.093C487.329 157.154 487.12 157.183 486.91 157.179L486.287 157.169ZM486.287 156.772H486.91C487.045 156.774 487.179 156.755 487.308 156.716C487.415 156.682 487.513 156.628 487.596 156.557C487.674 156.489 487.733 156.405 487.771 156.312C487.813 156.213 487.834 156.107 487.833 156C487.839 155.898 487.821 155.795 487.781 155.699C487.741 155.604 487.68 155.517 487.602 155.447C487.405 155.3 487.158 155.23 486.91 155.248H486.287V156.772Z" fill="#AFB1B8"/>
<path d="M493.201 158.561H492.795C492.754 158.563 492.714 158.551 492.681 158.527C492.652 158.504 492.629 158.474 492.615 158.441L492.265 157.547H490.508L490.145 158.441C490.132 158.474 490.11 158.503 490.081 158.524C490.048 158.549 490.007 158.563 489.965 158.561H489.559L491.102 154.858H491.637L493.201 158.561ZM490.655 157.186H492.105L491.493 155.679C491.446 155.566 491.408 155.449 491.377 155.331L491.318 155.525C491.3 155.584 491.28 155.637 491.262 155.682L490.655 157.186Z" fill="#AFB1B8"/>
<path d="M495.423 154.875C495.454 154.891 495.481 154.914 495.501 154.942L497.751 157.733C497.751 157.689 497.751 157.645 497.751 157.603C497.751 157.561 497.751 157.52 497.751 157.48V154.858H498.212V158.561H497.954C497.918 158.562 497.882 158.555 497.849 158.539C497.817 158.521 497.789 158.498 497.767 158.471L495.519 155.682C495.521 155.724 495.521 155.767 495.519 155.809C495.519 155.851 495.519 155.888 495.519 155.922V158.561H495.058V154.858H495.331C495.363 154.857 495.394 154.863 495.423 154.875Z" fill="#AFB1B8"/>
<path d="M502.003 157.088V158.559H501.488V157.088L500.066 154.858H500.526C500.566 154.856 500.605 154.867 500.637 154.89C500.665 154.914 500.688 154.942 500.706 154.974L501.596 156.412C501.632 156.473 501.663 156.53 501.689 156.584C501.715 156.638 501.735 156.689 501.753 156.74L501.82 156.581C501.845 156.523 501.874 156.466 501.908 156.412L502.785 154.964C502.803 154.935 502.826 154.908 502.852 154.885C502.882 154.86 502.922 154.847 502.962 154.849H503.428L502.003 157.088Z" fill="#AFB1B8"/>
<path d="M481.086 148.644C481.31 148.671 481.536 148.693 481.765 148.713C485.236 147.234 488.172 144.813 490.206 141.753C492.241 138.692 493.283 135.129 493.204 131.507L489.379 127.863C490.156 131.719 489.793 135.705 488.328 139.375C486.864 143.045 484.356 146.255 481.086 148.644Z" fill="#AFB1B8"/>
<path d="M479.72 148.475L479.823 148.494C483.318 146.113 485.982 142.788 487.471 138.949C488.96 135.11 489.207 130.933 488.178 126.959L482.73 121.769C484.933 126.035 485.82 130.81 485.288 135.537C484.755 140.265 482.824 144.751 479.72 148.475Z" fill="#AFB1B8"/>
<path d="M498.196 135.786C497.271 139.765 495.023 143.354 491.786 146.02C490.841 146.802 489.822 147.5 488.741 148.103C491.376 147.365 493.799 146.06 495.821 144.289C497.843 142.518 499.412 140.328 500.406 137.889L498.196 135.786Z" fill="#AFB1B8"/>
<path d="M497.329 135.2L494.183 132.203C494.123 135.62 493.104 138.959 491.231 141.874C489.358 144.788 486.699 147.172 483.532 148.776H483.548C484.253 148.776 484.959 148.736 485.659 148.656C488.619 147.505 491.234 145.674 493.27 143.326C495.306 140.978 496.701 138.187 497.329 135.2Z" fill="#AFB1B8"/>
<path d="M480.176 119.58L476.423 116C473.068 117.235 470.183 119.406 468.145 122.23C466.106 125.053 465.01 128.397 465 131.823V131.823C465.013 135.61 466.35 139.284 468.801 142.264C471.252 145.245 474.676 147.361 478.532 148.279C481.974 144.284 483.989 139.347 484.285 134.186C484.58 129.025 483.141 123.909 480.176 119.58Z" fill="#AFB1B8"/>
<path d="M506 134.649C505.986 130.157 504.107 125.852 500.773 122.676C497.439 119.499 492.921 117.709 488.206 117.696C486.027 117.694 483.867 118.077 481.835 118.826L504.812 140.717C505.598 138.782 506.001 136.724 506 134.649Z" fill="#AFB1B8"/>
<rect x="600.5" y="92.5" width="169" height="89" rx="3.5" stroke="#2196F3"/>
<path d="M657.402 128.831H657.399C655.137 128.831 653.303 130.618 653.303 132.822V132.825C653.303 135.029 655.137 136.817 657.399 136.817H657.402C659.664 136.817 661.498 135.029 661.498 132.825V132.822C661.498 130.618 659.664 128.831 657.402 128.831Z" fill="#2196F3"/>
<path d="M687.637 127.554C687.63 124.492 686.38 121.558 684.158 119.392C681.936 117.227 678.925 116.007 675.783 116V116C672.64 116.006 669.627 117.225 667.404 119.39C665.181 121.556 663.93 124.492 663.923 127.554V144.44C663.923 144.44 687.634 141.867 687.637 127.557V127.554Z" fill="#2196F3"/>
<path d="M645 149.982C645.006 152.113 645.877 154.155 647.422 155.662C648.968 157.168 651.063 158.018 653.249 158.024C655.435 158.018 657.53 157.169 659.075 155.662C660.621 154.156 661.492 152.115 661.498 149.985V138.236C661.498 138.236 645 140.028 645 149.982ZM653.249 152.087C652.822 152.087 652.404 151.964 652.049 151.733C651.694 151.501 651.417 151.173 651.253 150.788C651.09 150.403 651.047 149.98 651.131 149.572C651.214 149.163 651.42 148.788 651.722 148.494C652.024 148.199 652.409 147.999 652.828 147.918C653.247 147.836 653.681 147.878 654.076 148.037C654.471 148.197 654.808 148.467 655.045 148.813C655.283 149.159 655.409 149.566 655.409 149.982C655.41 150.259 655.355 150.534 655.247 150.79C655.139 151.047 654.98 151.28 654.78 151.476C654.579 151.672 654.34 151.828 654.078 151.934C653.815 152.041 653.534 152.095 653.249 152.095V152.087Z" fill="#2196F3"/>
<path d="M670.089 150.781H668.402V152.524H667.523V148.259H670.3V148.971H668.402V150.072H670.089V150.781ZM674.314 150.488C674.314 150.908 674.24 151.276 674.091 151.593C673.943 151.909 673.73 152.153 673.452 152.325C673.177 152.497 672.861 152.583 672.503 152.583C672.15 152.583 671.834 152.498 671.557 152.328C671.28 152.158 671.065 151.916 670.912 151.602C670.76 151.285 670.683 150.922 670.681 150.512V150.301C670.681 149.881 670.756 149.512 670.906 149.193C671.059 148.873 671.273 148.628 671.548 148.458C671.825 148.286 672.142 148.2 672.497 148.2C672.853 148.2 673.168 148.286 673.444 148.458C673.721 148.628 673.935 148.873 674.085 149.193C674.238 149.512 674.314 149.88 674.314 150.298V150.488ZM673.423 150.295C673.423 149.848 673.343 149.508 673.183 149.275C673.023 149.043 672.794 148.927 672.497 148.927C672.202 148.927 671.975 149.042 671.815 149.272C671.655 149.501 671.573 149.837 671.572 150.28V150.488C671.572 150.924 671.652 151.262 671.812 151.502C671.972 151.742 672.202 151.862 672.503 151.862C672.798 151.862 673.025 151.747 673.183 151.517C673.341 151.284 673.421 150.946 673.423 150.503V150.295ZM677.164 151.405C677.164 151.239 677.106 151.112 676.989 151.024C676.871 150.935 676.66 150.841 676.356 150.743C676.051 150.644 675.81 150.546 675.632 150.45C675.148 150.188 674.906 149.836 674.906 149.393C674.906 149.162 674.97 148.957 675.099 148.777C675.23 148.596 675.416 148.454 675.658 148.353C675.903 148.251 676.176 148.2 676.479 148.2C676.783 148.2 677.055 148.256 677.293 148.367C677.531 148.477 677.716 148.632 677.847 148.833C677.98 149.034 678.046 149.263 678.046 149.519H677.167C677.167 149.323 677.106 149.172 676.983 149.064C676.86 148.955 676.687 148.9 676.464 148.9C676.249 148.9 676.082 148.946 675.963 149.038C675.844 149.128 675.784 149.247 675.784 149.396C675.784 149.534 675.854 149.65 675.992 149.744C676.133 149.838 676.339 149.926 676.611 150.008C677.111 150.158 677.475 150.345 677.703 150.567C677.932 150.79 678.046 151.067 678.046 151.399C678.046 151.769 677.906 152.059 677.627 152.27C677.348 152.479 676.972 152.583 676.499 152.583C676.171 152.583 675.872 152.523 675.603 152.404C675.333 152.283 675.127 152.118 674.985 151.909C674.844 151.7 674.774 151.458 674.774 151.183H675.656C675.656 151.653 675.937 151.889 676.499 151.889C676.708 151.889 676.871 151.847 676.989 151.763C677.106 151.677 677.164 151.558 677.164 151.405ZM681.855 148.971H680.548V152.524H679.669V148.971H678.38V148.259H681.855V148.971ZM684.925 150.676H683.238V151.818H685.218V152.524H682.359V148.259H685.212V148.971H683.238V149.987H684.925V150.676ZM687.313 150.963H686.613V152.524H685.734V148.259H687.319C687.823 148.259 688.211 148.371 688.485 148.596C688.758 148.82 688.895 149.138 688.895 149.548C688.895 149.839 688.831 150.082 688.704 150.277C688.579 150.471 688.389 150.625 688.133 150.74L689.056 152.483V152.524H688.113L687.313 150.963ZM686.613 150.251H687.322C687.542 150.251 687.713 150.195 687.834 150.084C687.955 149.971 688.016 149.815 688.016 149.618C688.016 149.417 687.958 149.259 687.843 149.144C687.73 149.028 687.555 148.971 687.319 148.971H686.613V150.251ZM691.939 151.021V152.524H691.06V148.259H692.724C693.044 148.259 693.325 148.317 693.568 148.435C693.812 148.552 693.999 148.719 694.13 148.936C694.261 149.15 694.326 149.396 694.326 149.671C694.326 150.089 694.183 150.419 693.896 150.661C693.611 150.901 693.215 151.021 692.709 151.021H691.939ZM691.939 150.31H692.724C692.956 150.31 693.133 150.255 693.254 150.146C693.377 150.036 693.439 149.88 693.439 149.677C693.439 149.468 693.377 149.299 693.254 149.17C693.131 149.041 692.961 148.975 692.744 148.971H691.939V150.31ZM697.499 150.676H695.812V151.818H697.792V152.524H694.933V148.259H697.786V148.971H695.812V149.987H697.499V150.676ZM701.577 148.971H700.271V152.524H699.392V148.971H698.103V148.259H701.577V148.971ZM704.648 150.676H702.96V151.818H704.941V152.524H702.081V148.259H704.935V148.971H702.96V149.987H704.648V150.676ZM707.035 150.963H706.335V152.524H705.456V148.259H707.041C707.545 148.259 707.934 148.371 708.207 148.596C708.481 148.82 708.617 149.138 708.617 149.548C708.617 149.839 708.554 150.082 708.427 150.277C708.302 150.471 708.112 150.625 707.856 150.74L708.779 152.483V152.524H707.835L707.035 150.963ZM706.335 150.251H707.044C707.265 150.251 707.436 150.195 707.557 150.084C707.678 149.971 707.739 149.815 707.739 149.618C707.739 149.417 707.681 149.259 707.566 149.144C707.452 149.028 707.278 148.971 707.041 148.971H706.335V150.251ZM711.5 151.405C711.5 151.239 711.442 151.112 711.324 151.024C711.207 150.935 710.996 150.841 710.692 150.743C710.387 150.644 710.146 150.546 709.968 150.45C709.484 150.188 709.241 149.836 709.241 149.393C709.241 149.162 709.306 148.957 709.435 148.777C709.566 148.596 709.752 148.454 709.994 148.353C710.239 148.251 710.512 148.2 710.815 148.2C711.119 148.2 711.391 148.256 711.629 148.367C711.867 148.477 712.052 148.632 712.183 148.833C712.316 149.034 712.382 149.263 712.382 149.519H711.503C711.503 149.323 711.442 149.172 711.319 149.064C711.196 148.955 711.023 148.9 710.8 148.9C710.585 148.9 710.418 148.946 710.299 149.038C710.18 149.128 710.12 149.247 710.12 149.396C710.12 149.534 710.19 149.65 710.328 149.744C710.469 149.838 710.675 149.926 710.947 150.008C711.447 150.158 711.811 150.345 712.039 150.567C712.268 150.79 712.382 151.067 712.382 151.399C712.382 151.769 712.242 152.059 711.963 152.27C711.684 152.479 711.308 152.583 710.835 152.583C710.507 152.583 710.208 152.523 709.939 152.404C709.669 152.283 709.463 152.118 709.321 151.909C709.18 151.7 709.11 151.458 709.11 151.183H709.991C709.991 151.653 710.273 151.889 710.835 151.889C711.044 151.889 711.207 151.847 711.324 151.763C711.442 151.677 711.5 151.558 711.5 151.405Z" fill="#2196F3"/>
<rect x="800.5" y="92.5" width="169" height="89" rx="3.5" stroke="#AFB1B8"/>
<path d="M860.488 153.278C860.718 153.563 860.84 153.921 860.834 154.288C860.845 154.528 860.803 154.767 860.71 154.988C860.618 155.209 860.477 155.406 860.298 155.565C859.851 155.904 859.298 156.069 858.739 156.031H856V149.626H858.683C859.213 149.591 859.738 149.741 860.17 150.052C860.343 150.197 860.48 150.382 860.571 150.589C860.661 150.797 860.702 151.024 860.69 151.25C860.706 151.604 860.595 151.951 860.379 152.23C860.17 152.484 859.883 152.66 859.562 152.73C859.925 152.797 860.254 152.991 860.488 153.278ZM857.275 152.311H858.421C858.682 152.33 858.941 152.255 859.151 152.098C859.237 152.02 859.304 151.923 859.346 151.814C859.389 151.706 859.406 151.589 859.397 151.472C859.405 151.357 859.387 151.24 859.345 151.132C859.303 151.024 859.238 150.926 859.154 150.847C858.938 150.686 858.671 150.609 858.403 150.631H857.275V152.311ZM859.263 154.767C859.355 154.687 859.427 154.586 859.474 154.474C859.521 154.361 859.542 154.238 859.534 154.116C859.541 153.993 859.52 153.869 859.472 153.755C859.423 153.641 859.35 153.54 859.257 153.459C859.032 153.292 858.756 153.21 858.478 153.228H857.275V154.989H858.493C858.767 155.005 859.039 154.927 859.263 154.767Z" fill="#AFB1B8"/>
<path d="M865.972 156.031L864.48 153.528H863.919V156.031H862.635V149.626H865.066C865.678 149.583 866.284 149.778 866.758 150.171C867.098 150.518 867.303 150.976 867.336 151.462C867.369 151.948 867.228 152.43 866.939 152.821C866.639 153.166 866.229 153.396 865.779 153.472L867.369 156.031H865.972ZM863.919 152.655H864.969C865.698 152.655 866.063 152.332 866.063 151.685C866.07 151.553 866.05 151.421 866.004 151.297C865.958 151.173 865.887 151.06 865.795 150.966C865.564 150.773 865.268 150.68 864.969 150.706H863.906L863.919 152.655Z" fill="#AFB1B8"/>
<path d="M872.991 154.742H870.432L869.98 156.031H868.634L870.984 149.698H872.439L874.78 156.031H873.433L872.991 154.742ZM872.648 153.772L871.713 151.069L870.778 153.772H872.648Z" fill="#AFB1B8"/>
<path d="M881.776 156.031H880.501L877.644 151.676V156.031H876.372V149.626H877.644L880.501 154.007V149.626H881.776V156.031Z" fill="#AFB1B8"/>
<path d="M889.05 154.498C888.786 154.982 888.385 155.375 887.897 155.628C887.342 155.909 886.726 156.048 886.105 156.031H883.836V149.626H886.105C886.725 149.61 887.34 149.745 887.897 150.021C888.385 150.267 888.787 150.657 889.05 151.138C889.312 151.659 889.449 152.234 889.449 152.818C889.449 153.402 889.312 153.977 889.05 154.498ZM887.591 154.345C887.955 153.919 888.155 153.377 888.155 152.816C888.155 152.256 887.955 151.713 887.591 151.288C887.152 150.902 886.578 150.707 885.996 150.743H885.111V154.889H885.996C886.578 154.926 887.152 154.73 887.591 154.345Z" fill="#AFB1B8"/>
<path d="M873.789 114C873.789 114 890.24 120.236 889.891 129.26V144.523C889.891 144.523 873.452 138.284 873.795 129.26L873.789 114Z" fill="#AFB1B8"/>
<path d="M904.548 140.95C907.655 138.803 911.249 137.473 915 137.082V132.304C910.677 133.977 907.01 137.01 904.548 140.95Z" fill="#AFB1B8"/>
<path d="M902.681 142.389C905.224 137.248 909.633 133.28 915 131.303V117.536C915 117.536 891.571 126.419 892.066 139.269V161C892.066 161 893.11 160.603 894.753 159.858C894.753 159.163 894.753 158.462 894.827 157.758C895.312 151.793 898.137 146.264 902.681 142.389Z" fill="#AFB1B8"/>
<path d="M900.453 150.462C900.576 148.955 900.85 147.464 901.272 146.012C898.443 149.359 896.73 153.512 896.373 157.887C896.339 158.3 896.32 158.713 896.311 159.138C897.642 158.497 899.19 157.696 900.817 156.754C900.402 154.684 900.279 152.566 900.453 150.462Z" fill="#AFB1B8"/>
<path d="M901.384 150.54C901.228 152.444 901.326 154.36 901.674 156.238C908.075 152.392 915.268 146.45 914.991 139.269V138.644C910.417 139.157 906.138 141.165 902.812 144.357C902.033 146.335 901.552 148.419 901.384 150.54Z" fill="#AFB1B8"/>
<rect x="1000.5" y="92.5" width="169" height="89" rx="3.5" stroke="#AFB1B8"/>
<path d="M1085.74 135.353C1085.32 134.743 1085.12 134.022 1085.17 133.296V130.314C1085.17 129.399 1085.36 128.704 1085.74 128.229C1086.12 127.754 1086.76 127.517 1087.69 127.519C1088.55 127.519 1089.17 127.721 1089.53 128.126C1089.92 128.642 1090.12 129.273 1090.07 129.91V130.611H1088.53V129.901C1088.53 129.669 1088.52 129.436 1088.48 129.206C1088.46 129.049 1088.38 128.903 1088.26 128.793C1088.1 128.675 1087.9 128.618 1087.7 128.633C1087.49 128.618 1087.28 128.678 1087.11 128.803C1086.97 128.924 1086.88 129.084 1086.85 129.258C1086.81 129.501 1086.79 129.748 1086.79 129.995V133.615C1086.77 133.964 1086.84 134.313 1086.99 134.631C1087.07 134.739 1087.17 134.824 1087.3 134.878C1087.42 134.931 1087.56 134.951 1087.7 134.935C1087.9 134.95 1088.09 134.891 1088.25 134.771C1088.37 134.652 1088.45 134.498 1088.48 134.331C1088.51 134.091 1088.53 133.848 1088.53 133.606V132.871H1090.07V133.542C1090.12 134.206 1089.93 134.864 1089.54 135.417C1089.18 135.86 1088.58 136.082 1087.69 136.082C1086.79 136.082 1086.12 135.845 1085.74 135.353Z" fill="#AFB1B8"/>
<path d="M1092.19 135.384C1091.79 134.919 1091.6 134.243 1091.6 133.348V130.21C1091.6 129.324 1091.79 128.654 1092.19 128.199C1092.58 127.744 1093.23 127.517 1094.15 127.519C1095.06 127.519 1095.71 127.746 1096.1 128.199C1096.49 128.654 1096.69 129.324 1096.69 130.21V133.348C1096.69 134.234 1096.49 134.913 1096.09 135.381C1095.69 135.848 1095.05 136.082 1094.15 136.082C1093.25 136.082 1092.58 135.845 1092.19 135.384ZM1094.87 134.631C1095.01 134.34 1095.07 134.022 1095.05 133.703V129.861C1095.07 129.548 1095.01 129.236 1094.87 128.951C1094.79 128.841 1094.68 128.755 1094.56 128.701C1094.43 128.647 1094.29 128.629 1094.15 128.648C1094.01 128.629 1093.87 128.648 1093.74 128.702C1093.61 128.755 1093.5 128.842 1093.42 128.951C1093.28 129.235 1093.21 129.548 1093.23 129.861V133.721C1093.21 134.04 1093.28 134.359 1093.42 134.649C1093.51 134.747 1093.62 134.826 1093.75 134.879C1093.87 134.933 1094.01 134.961 1094.14 134.961C1094.28 134.961 1094.42 134.933 1094.54 134.879C1094.67 134.826 1094.78 134.747 1094.87 134.649V134.631Z" fill="#AFB1B8"/>
<path d="M1098.55 127.611H1100.22L1101.47 133.399L1102.75 127.611H1104.37L1104.54 135.966H1103.34L1103.21 130.159L1101.97 135.966H1101.01L1099.73 130.138L1099.61 135.966H1098.4L1098.55 127.611Z" fill="#AFB1B8"/>
<path d="M1106.41 127.611H1109C1110.5 127.611 1111.25 128.401 1111.25 129.983C1111.25 131.498 1110.46 132.254 1108.88 132.252H1108V135.966H1106.4L1106.41 127.611ZM1108.62 131.181C1108.78 131.2 1108.94 131.187 1109.09 131.141C1109.25 131.096 1109.39 131.019 1109.5 130.917C1109.69 130.635 1109.77 130.304 1109.74 129.974C1109.74 129.719 1109.72 129.464 1109.66 129.216C1109.64 129.132 1109.6 129.054 1109.54 128.986C1109.49 128.918 1109.42 128.861 1109.34 128.818C1109.12 128.717 1108.87 128.671 1108.62 128.685H1108V131.181H1108.62Z" fill="#AFB1B8"/>
<path d="M1113.56 127.611H1115.28L1117.04 135.966H1115.55L1115.2 134.039H1113.66L1113.31 135.966H1111.79L1113.56 127.611ZM1115.03 133.072L1114.43 129.564L1113.83 133.072H1115.03Z" fill="#AFB1B8"/>
<path d="M1118.47 127.611H1119.59L1121.74 132.377V127.611H1123.07V135.966H1122L1119.84 130.99V135.966H1118.47L1118.47 127.611Z" fill="#AFB1B8"/>
<path d="M1126.18 132.78L1124.4 127.622H1125.9L1126.99 130.935L1128.01 127.622H1129.48L1127.72 132.78V135.966H1126.18V132.78Z" fill="#AFB1B8"/>
<path d="M1088.21 139.619V140.056H1086.91V143.451H1086.36V140.056H1085.05V139.619H1088.21Z" fill="#AFB1B8"/>
<path d="M1092.31 143.451H1091.89C1091.85 143.454 1091.81 143.441 1091.77 143.415C1091.74 143.393 1091.72 143.362 1091.7 143.327L1091.32 142.417H1089.51L1089.13 143.327C1089.12 143.365 1089.1 143.4 1089.07 143.43C1089.04 143.455 1089 143.468 1088.96 143.466H1088.53L1090.13 139.635H1090.69L1092.31 143.451ZM1089.66 142.028H1091.17L1090.53 140.469C1090.48 140.351 1090.44 140.23 1090.41 140.108C1090.39 140.181 1090.37 140.25 1090.35 140.311L1090.29 140.472L1089.66 142.028Z" fill="#AFB1B8"/>
<path d="M1095.08 143.075C1095.18 143.08 1095.28 143.08 1095.38 143.075C1095.46 143.066 1095.55 143.051 1095.63 143.029C1095.71 143.011 1095.79 142.988 1095.87 142.96C1095.94 142.932 1096.01 142.899 1096.08 142.865V142.004H1095.44C1095.42 142.005 1095.41 142.002 1095.39 141.997C1095.38 141.992 1095.36 141.984 1095.35 141.973C1095.34 141.965 1095.33 141.954 1095.33 141.942C1095.32 141.93 1095.32 141.917 1095.32 141.904V141.609H1096.56V143.078C1096.46 143.147 1096.36 143.207 1096.24 143.26C1096.13 143.313 1096.01 143.357 1095.89 143.39C1095.76 143.427 1095.62 143.453 1095.49 143.469C1095.33 143.486 1095.18 143.494 1095.02 143.494C1094.74 143.496 1094.47 143.447 1094.21 143.351C1093.97 143.26 1093.75 143.123 1093.57 142.95C1093.39 142.776 1093.25 142.57 1093.16 142.344C1093.06 142.09 1093.01 141.82 1093.01 141.549C1093.01 141.275 1093.05 141.004 1093.15 140.748C1093.25 140.52 1093.39 140.314 1093.57 140.141C1093.75 139.968 1093.97 139.833 1094.21 139.743C1094.48 139.645 1094.77 139.597 1095.07 139.601C1095.22 139.6 1095.37 139.612 1095.51 139.634C1095.64 139.654 1095.77 139.687 1095.89 139.731C1096.01 139.771 1096.11 139.822 1096.21 139.883C1096.31 139.943 1096.41 140.01 1096.49 140.083L1096.34 140.32C1096.33 140.341 1096.31 140.359 1096.29 140.372C1096.27 140.385 1096.24 140.392 1096.21 140.392C1096.18 140.391 1096.14 140.381 1096.12 140.362C1096.07 140.338 1096.02 140.308 1095.96 140.271C1095.89 140.231 1095.82 140.196 1095.74 140.168C1095.65 140.132 1095.55 140.103 1095.45 140.083C1095.31 140.06 1095.18 140.048 1095.04 140.05C1094.83 140.047 1094.62 140.083 1094.42 140.156C1094.24 140.224 1094.08 140.327 1093.95 140.459C1093.82 140.597 1093.72 140.759 1093.65 140.936C1093.51 141.351 1093.51 141.798 1093.65 142.213C1093.72 142.393 1093.83 142.558 1093.97 142.696C1094.11 142.827 1094.27 142.93 1094.44 142.999C1094.65 143.065 1094.86 143.091 1095.08 143.075Z" fill="#AFB1B8"/>
<path d="M1100.19 143.014H1101.94V143.451H1099.65V139.619H1100.2L1100.19 143.014Z" fill="#AFB1B8"/>
<path d="M1103.76 143.451H1103.21V139.619H1103.76V143.451Z" fill="#AFB1B8"/>
<path d="M1105.79 139.637C1105.83 139.655 1105.85 139.678 1105.88 139.707L1108.22 142.596C1108.22 142.55 1108.22 142.504 1108.22 142.459C1108.22 142.417 1108.22 142.374 1108.22 142.335V139.604H1108.7V143.451H1108.42C1108.38 143.454 1108.34 143.447 1108.3 143.43C1108.27 143.411 1108.24 143.386 1108.22 143.357L1105.88 140.472C1105.88 140.517 1105.88 140.56 1105.88 140.602C1105.88 140.645 1105.88 140.684 1105.88 140.72V143.451H1105.42V139.619H1105.7C1105.74 139.619 1105.77 139.625 1105.79 139.637Z" fill="#AFB1B8"/>
<path d="M1112.73 139.619V140.041H1110.79V141.306H1112.36V141.712H1110.79V143.02H1112.73V143.442H1110.23V139.619H1112.73Z" fill="#AFB1B8"/>
<path d="M1055.3 115.954L1079.64 122.495V145.417L1055.3 138.879V115.954ZM1053.74 114V139.992L1081.2 147.374V121.385L1053.74 114Z" fill="#AFB1B8"/>
<path d="M1068.46 159.44L1041 152.052V126.062L1068.46 133.447V159.44Z" fill="#AFB1B8"/>
<path d="M1054.2 115.66L1078.22 122.119L1068 131.791L1043.98 125.329L1054.2 115.66ZM1053.74 114L1041 126.063L1068.46 133.448L1081.2 121.385L1053.74 114Z" fill="#AFB1B8"/>
<path d="M1070 157.978L1081.2 147.377L1070 144.365V157.978Z" fill="#AFB1B8"/>
</svg>
